<svg width="231" height="93" fill="none" xmlns="http://www.w3.org/2000/svg"><g clip-path="url(#a)"><path d="M224.11-.008H28.879a5.744 5.744 0 0 0-5.744 5.744v216.318h206.719V5.736a5.744 5.744 0 0 0-5.744-5.744Z" fill="#fff"/><path fill-rule="evenodd" clip-rule="evenodd" d="M88.026 50.739h34.464v34.463H88.026V50.74Z" fill="#C6BAEA"/><path d="M104.654 62.586a1.388 1.388 0 0 1 2.405 0l3.91 6.771a1.39 1.39 0 0 1-1.203 2.084h-7.819a1.39 1.39 0 0 1-1.203-2.084l3.91-6.771Z" stroke="#A5A0DA" stroke-width="2.083"/><path d="M89.174 90.658h32.166" stroke="#D9D9D9" stroke-width="1.723" stroke-miterlimit="10" stroke-linecap="round"/><path fill-rule="evenodd" clip-rule="evenodd" d="M170.449 50.739h34.464v34.463h-34.464V50.74Z" fill="#FEEA75"/><mask id="b" fill="#fff"><rect width="11.112" height="11.112" rx="1.389" transform="matrix(1 0 0 -1 182.351 73.713)"/></mask><rect width="11.112" height="11.112" rx="1.389" transform="matrix(1 0 0 -1 182.351 73.713)" stroke="#FBD83A" stroke-width="4.167" mask="url(#b)"/><path d="M171.598 90.783h32.166" stroke="#D9D9D9" stroke-width="1.723" stroke-miterlimit="10" stroke-linecap="round"/><path fill-rule="evenodd" clip-rule="evenodd" d="M129.381 50.739h34.463v34.463h-34.463V50.74Z" fill="#FF7F8C"/><circle cx="146.707" cy="67.962" r="5.556" stroke="#F25B72" stroke-width="2.083"/><path d="M130.529 90.658h32.166" stroke="#D9D9D9" stroke-width="1.723" stroke-miterlimit="10" stroke-linecap="round"/><path fill-rule="evenodd" clip-rule="evenodd" d="m31.714 55.781 32.385-11.787 11.787 32.385-32.385 11.787-11.787-32.385Z" fill="#4CCFC9"/><path d="M59.143 64.42a5.557 5.557 0 1 1-10.443 3.8 5.557 5.557 0 0 1 10.443-3.8Z" stroke="#07B2AD" stroke-width="2.083"/><path fill="#4CCFC9" d="M23.383 14.527h206.72v21.802H23.383z"/><path d="M131.737 25.895h12.285M155.429 25.895h14.039M181.753 25.895h20.182" stroke="#fff" stroke-width="2.629" stroke-linecap="round"/><path d="M48.238 25.474h1.22c.775 0 1.324-.113 1.736-.355.613-.364.92-.961.92-1.785 0-.718-.363-1.332-.977-1.655-.436-.234-.969-.348-1.631-.348h-1.357c-.63 0-.944.323-.944.953v5.281c0 .243.218.42.516.42.3 0 .517-.177.517-.42v-2.091Zm0-.84v-2.229c0-.137.065-.201.202-.201h1.01c.363 0 .678.048.904.145.412.17.638.533.638 1.017 0 .485-.162.848-.46 1.042-.25.153-.622.226-1.196.226h-1.098Zm6.28-.202.032-1.033c.008-.234-.202-.404-.492-.404-.291 0-.493.17-.493.404v4.174c0 .243.21.412.509.412.29 0 .5-.17.5-.412v-2.01c.138-.937.8-1.599 1.6-1.599.355 0 .532-.162.532-.493 0-.282-.226-.484-.533-.484-.767 0-1.356.525-1.631 1.445h-.024Zm5.302-1.461c-1.43 0-2.447 1.041-2.447 2.511 0 1.502.994 2.536 2.447 2.536 1.446 0 2.439-1.034 2.439-2.536 0-1.47-1.018-2.511-2.439-2.511Zm0 .807c.816 0 1.405.719 1.405 1.696 0 1.01-.573 1.704-1.405 1.704-.84 0-1.413-.695-1.413-1.704 0-.977.598-1.696 1.413-1.696Zm7.19-.129c-.372-.436-.88-.654-1.51-.654-1.228 0-2.124.993-2.124 2.35 0 1.389.856 2.317 2.14 2.317.557 0 1.082-.258 1.437-.702v.662c0 .783-.484 1.252-1.284 1.252-.508 0-.944-.121-1.356-.38-.178-.113-.234-.13-.348-.13-.218 0-.403.203-.403.437 0 .46 1.001.88 2.115.88.67 0 1.333-.218 1.656-.54.404-.405.581-.921.581-1.713V23.44c0-.242-.153-.42-.371-.42-.226 0-.364.097-.428.299l-.105.331Zm-.057 2.536c-.33.5-.727.726-1.292.726-.775 0-1.324-.654-1.324-1.574 0-.897.549-1.559 1.3-1.559.565 0 .969.218 1.316.695v1.712Zm5.726-1.308h-.663c-1.728 0-2.648.565-2.648 1.623 0 .872.686 1.502 1.64 1.502.774 0 1.396-.307 1.735-.848h.032c.033.185.081.363.17.581.073.178.194.267.388.267.29 0 .492-.162.492-.388a.41.41 0 0 0-.032-.162c-.121-.298-.162-.59-.162-1.009v-1.59c0-.574-.12-.962-.387-1.269-.34-.395-.92-.605-1.64-.605-.645 0-1.275.17-1.711.452-.154.105-.234.226-.234.371 0 .21.177.404.38.404a.463.463 0 0 0 .233-.072c.42-.243.816-.348 1.292-.348.743 0 1.115.307 1.115.92v.17Zm-.008.662v.395c0 .67-.646 1.268-1.381 1.268-.533 0-.889-.299-.889-.75 0-.63.582-.913 1.858-.913h.412Zm3.302-2.431H75.1c-.194 0-.331.17-.331.396 0 .218.145.387.33.387h.873v2.705c0 .897.444 1.381 1.267 1.381.703 0 1.228-.234 1.228-.565 0-.226-.162-.42-.347-.42a.368.368 0 0 0-.178.049c-.218.104-.355.145-.525.145-.194 0-.339-.097-.396-.267-.032-.088-.04-.21-.04-.46v-2.568h1.163c.194 0 .34-.17.34-.387 0-.226-.146-.396-.34-.396h-1.163v-1.066c0-.234-.218-.404-.509-.404-.29 0-.5.17-.5.404v1.066Zm7.558 2.552c.42 0 .557-.13.557-.517 0-.509-.242-1.106-.606-1.502-.412-.436-.969-.67-1.623-.67-1.405 0-2.39 1.05-2.39 2.56s.977 2.487 2.487 2.487c.719 0 1.381-.227 1.833-.622.17-.146.242-.267.242-.412 0-.218-.218-.428-.444-.428a.395.395 0 0 0-.266.113c-.396.363-.767.509-1.284.509-.937 0-1.478-.541-1.526-1.518h3.02Zm-3.004-.719c.121-.727.63-1.203 1.292-1.203.702 0 1.179.46 1.235 1.203h-2.527Z" fill="#fff"/><path d="M23.135 4.837A4.845 4.845 0 0 1 27.98-.008h197.029a4.845 4.845 0 0 1 4.845 4.845v10.497H23.134V4.837Z" fill="#486085"/><path d="M32.426 10.913a2.442 2.442 0 0 0 2.437-2.448 2.442 2.442 0 0 0-2.437-2.447 2.442 2.442 0 0 0-2.437 2.447 2.442 2.442 0 0 0 2.437 2.448Z" fill="#FF7F8C"/><path d="M41.36 10.913a2.442 2.442 0 0 0 2.438-2.448 2.442 2.442 0 0 0-2.437-2.447 2.442 2.442 0 0 0-2.437 2.447 2.442 2.442 0 0 0 2.437 2.448Z" fill="#EAE46F"/><path d="M50.293 10.913a2.442 2.442 0 0 0 2.437-2.448 2.442 2.442 0 0 0-2.437-2.447 2.442 2.442 0 0 0-2.437 2.447 2.442 2.442 0 0 0 2.437 2.448Z" fill="#71CCC8"/><path d="M27.979 1.203h197.029a3.634 3.634 0 0 1 3.634 3.634v216.006H24.345V4.837a3.634 3.634 0 0 1 3.634-3.634Z" stroke="#fff" stroke-width="2.422"/><path d="M23.08 94.727c-.684 5.925 6.53 7.701 11.233 6.49 4.703-1.212 7.4-6.55 5.89-12.443-1.509-5.892-4.736-11.949-11.681-10.16-4.313 1.112-4.422 5.28-3.922 8.929.342 2.494-1.396 6.105-1.52 7.184Z" fill="#7779B5"/><path d="M37.95 82.854a43.428 43.428 0 0 1 1.412 2.864c.269.59.338.844.572 1.492.309.934.492 1.906.545 2.888-.05-.018-4.93-.812-5.793-4.16a2.817 2.817 0 0 1-.096-1.428c.407-1.1 2.448-2.283 3.36-1.656Z" fill="#fff"/><mask id="c" style="mask-type:alpha" maskUnits="userSpaceOnUse" x="34" y="82" width="7" height="9"><path d="M37.95 82.854a43.428 43.428 0 0 1 1.412 2.864c.269.59.338.844.572 1.492.309.934.492 1.906.545 2.888-.05-.018-4.93-.812-5.793-4.16a2.817 2.817 0 0 1-.096-1.428c.407-1.1 2.448-2.283 3.36-1.656Z" fill="#fff"/></mask><g mask="url(#c)" fill="#605983"><path d="m40.95 88.905.209-.271a28.052 28.052 0 0 0-2.517-1.704 212.797 212.797 0 0 0-3.703-2.091l-.164.3c.021.011 2.183 1.204 3.695 2.086a27.748 27.748 0 0 1 2.48 1.68Z"/><path d="M37.905 89.797a8.88 8.88 0 0 0 1.712-1.806 9.012 9.012 0 0 0 .895-1.806l-.324-.109a8.85 8.85 0 0 1-.859 1.73 8.71 8.71 0 0 1-1.635 1.722l.21.269ZM36.171 88.55a7.625 7.625 0 0 0 2.013-2.123 9.116 9.116 0 0 0 1.092-2.242l-.328-.096a8.937 8.937 0 0 1-1.05 2.149 7.422 7.422 0 0 1-1.91 2.024l.183.288Z"/></g><path d="M38.256 83.372c.261.494.501 1.008.722 1.537-.31.525-4.454 2.74-9.127 2.62-2.968-.077-4.39-.666-5.422-1.808a16.118 16.118 0 0 1-.016-.317c.854-.013 12.773-1.68 13.843-2.032ZM43.878 84.352c.715 1.443-.374 2.402-1.724 3.247 0 0-4.031 2.346-8.06 2.419.513.106 1.03.205 1.548.297a5.46 5.46 0 0 0 3.266-.443 24.955 24.955 0 0 0 3.642-2.03c1.461-1.062 2.225-2.076 1.66-3.333a1.584 1.584 0 0 0-1.038-.88c.307.159.554.412.706.723Z" fill="#605983" style="mix-blend-mode:multiply" opacity=".3"/><path d="M36.719 89.607c3.187-.144 6.397-2.465 6.397-2.465 1.084-.753 1.965-1.597 1.43-2.818-.516-1.175-2.116-.776-2.506-.47-2.833 1.52-8.614 2.227-9.28 2.304-.045.005-4.56.184-4.602.196 0 0-.98 1.938-.864 2.01 4.326 2.74 9.425 1.243 9.425 1.243Z" fill="#7979B5"/><path d="M43.196 87.114a3.483 3.483 0 0 1-1.259-1.396c-.256-.601-.451-1.48-.08-1.773.398-.313 2.136-.918 2.735.394.564 1.234-.727 2.544-1.396 2.775Z" fill="#C2CBD2"/><path opacity=".3" d="m34.09 85.487.026.308c-.893 1.25-2.235 2.012-5.181 2.413-4.644.644-8.992-1.08-9.368-1.574.167-.54.359-1.083.552-1.602 1.095.24 13.12.553 13.97.455Z" fill="#605983"/><path d="M21.19 62.172c-3.624-1.906-7.43-1.704-11.91-1.04-2.805.28 2.029 7.926 8.564 10.006" fill="#6061A5"/><path d="M26.145 56.811c8.648-3.529 16.188 2.172 20.807 11.719.547 1.13 1.311.742 1.665 1.74 2.232 6.315-1.77 11.23-13.121 15.372-9.023 3.292-16.88 1.882-20.515-5.644-4.543-9.404-1.924-17.846 11.164-23.187Z" fill="#7779B5"/><path d="M42.638 61.784a23.914 23.914 0 0 1 4.613 6.668c.512 1.102 1.584.108 2.015 1.4.56 1.91.83 5.192-1.364 7.888a4.222 4.222 0 0 1-1.191.542c-4.858 1.658-9.133 1.48-11.052-1.986-3.042-5.492.019-11.025 6.98-14.512Z" fill="#DFBD7E"/><path d="M45.54 74.468c-1.072-2.15.17-4.203 2.23-5.603a1.523 1.523 0 0 1 1.477.766c.712 1.244 1.036 4.385.12 5.186-1.256.574-3.264.782-3.828-.349Z" fill="#fff"/><path d="M42.95 73.626a1.202 1.202 0 0 1-1.23-1.173 1.202 1.202 0 1 1 2.4-.06 1.203 1.203 0 0 1-1.17 1.233Z" fill="#2B366E"/><path opacity=".9" d="M40.456 69.63c-.08.687.6.585 1.22.492.619-.093 1.416.208 1.111-.841-.12-.415-.648-.693-1.227-.647a1.126 1.126 0 0 0-1.104.997Z" fill="#fff"/><path d="M42.79 72.963a.165.165 0 1 1-.008-.33.165.165 0 0 1 .008.33ZM43.083 72.329a.395.395 0 1 1-.019-.79.395.395 0 0 1 .02.79Z" fill="#fff"/><path d="M47.526 70.347c.211.449 1.051.57 1.694.169.396-.248.232-.808.126-1.022-.222-.443-.333-.518-.763-.332-.696.3-1.268.736-1.057 1.185Z" fill="#2E376E"/><path opacity=".8" d="M48.492 69.779c.107.17.405.176.666.012.26-.163.386-.435.28-.605-.107-.171-.341-.074-.602.09-.26.164-.45.332-.344.503Z" fill="#fff"/><path d="M47.152 71.826a.19.19 0 0 1 .27-.002 1 1 0 0 0 .86.232 1.365 1.365 0 0 0 .921-.608.225.225 0 0 0 .029-.18 4.287 4.287 0 0 0-.249-.673.191.191 0 0 1 .088-.256.187.187 0 0 1 .255.088c.14.29.244.597.313.912a.707.707 0 0 1-.147.36c-.213.307-.518.54-.87.664a1.667 1.667 0 0 1-.28.07 1.378 1.378 0 0 1-1.187-.337.19.19 0 0 1-.003-.27Z" fill="#2E376E"/><path d="M45.584 65.426a22.73 22.73 0 0 0-1.224-1.721 17.067 17.067 0 0 0-1.166-1.344 28.4 28.4 0 0 0-3.434 1.623c-3.385 2.264-5.254 4.97-5.304 7.926a42.396 42.396 0 0 1 11.128-6.484Z" fill="#605983" style="mix-blend-mode:multiply" opacity=".3"/><path d="M34.475 71.48a41.027 41.027 0 0 1 10.898-6.375c-1.291-1.931-2.49-3.402-2.496-3.42-5.214 2.467-8.122 6.175-8.402 9.796Z" fill="#CFCFCF"/><path d="m39.92 59.101 3.685 1.256 1.596 4.5-4.298-2.081-.982-3.675Z" fill="#fff"/><path opacity=".23" d="m40.903 62.775 4.298 2.081-1.596-4.5-2.702 2.42Z" fill="#9E9FC0"/><path d="M30.21 97.898c-4.076 3.824-9.552 2.36-12.442-1.266-2.13-2.675-1.566-6.446-.263-8.579.173-.287.373-.557.598-.806 3.51-3.834 8.511-1.987 10.08.328 1.183 1.746 1.424 5.258-1.367 6.744-2.173 1.157-4.27.495-5.286-1.083-.222 1.009 2.452 4.341 8.109 1.152" fill="#7779B5"/><path d="M27.997 87.326c-1.42-1.784-4.841-3.161-7.89-1.621 1.505.072 4.174-.022 5.108 3.47.53 1.983-1.59 4.356-3.683 4.051-.002 0 0 .01 0 .013.073.112.152.22.236.323l.077.089a3.603 3.603 0 0 0 .505.481c.03.024.059.048.09.071.106.079.216.151.33.218l.013.006.008.004c.094.053.189.103.287.147l.018.007c.1.045.201.086.306.121h.002c.008.004.017.005.026.008.101.034.205.064.31.09l.03.005.022.004c.099.022.199.042.3.056.03.004.06.004.09.008.091.01.182.02.275.024h.015l.111-.001c.083.001.165.003.249-.002.054-.003.108-.011.163-.016.073-.007.147-.012.221-.023.04-.005.082-.015.123-.023l.065-.013c.068-.012.135-.023.204-.04.058-.013.116-.033.174-.05l.062-.017c.054-.016.108-.029.162-.047.058-.02.116-.043.173-.066l.04-.016a6.387 6.387 0 0 0 .595-.267l.002-.001a3.988 3.988 0 0 0 1.97-2.327c.1-.308.168-.626.203-.948a5.18 5.18 0 0 0 .017-.933c-.003-.049-.01-.097-.014-.146-.01-.1-.02-.2-.035-.3-.008-.056-.019-.112-.029-.168a5.733 5.733 0 0 0-.096-.436 5.462 5.462 0 0 0-.216-.654c-.02-.049-.039-.098-.06-.146a4.797 4.797 0 0 0-.118-.244c-.02-.038-.038-.078-.058-.115a4.097 4.097 0 0 0-.35-.535l-.033-.041Z" fill="#6061A5"/><path d="M9.412 75.365c-.416-3.996 5.228-11.8 8.55-12.136l.73.013s7.868 1.426 3.136 8.889c-2.526 3.02-12.206 5.328-12.416 3.234Z" fill="#777AB0"/><path opacity=".35" d="M21.692 67.842c.42.34-.035 3.72-.766 4.947-.406.265-.72.432-1.125.696a24.757 24.757 0 0 1-6.663 2.456 6.585 6.585 0 0 1-2.189-.01c5.444-3.029 10.483-8.337 10.743-8.09Z" fill="#5F5A80"/></g><defs><clipPath id="a"><path fill="#fff" transform="translate(.835)" d="M0 0h229.33v93H0z"/></clipPath></defs></svg>